<?xml version="1.0" encoding="utf-8"?>
<!-- Generator: Adobe Illustrator 25.2.3, SVG Export Plug-In . SVG Version: 6.00 Build 0)  -->
<svg version="1.1" id="Capa_1" xmlns="http://www.w3.org/2000/svg" xmlns:xlink="http://www.w3.org/1999/xlink" x="0px" y="0px"
	 viewBox="0 0 512 512" style="enable-background:new 0 0 512 512;" xml:space="preserve">
<style type="text/css">
	.st0{fill:#FFFFFF;}
	.st1{fill:#E04556;}
</style>
<g>
	<circle class="st0" cx="256" cy="256" r="256"/>
</g>
<path class="st1" d="M335.6,184.8h-59.7l26.5-62.1l92.6,53.4v161l-139.4,80.5l-11.9-6.9c-4.5-2.6-10.3-1.1-12.9,3.4l-7.9,13.4
	c-2.7,4.6-1.1,10.4,3.4,13.1l20.6,11.9c2.7,1.5,5.6,2.3,8.6,2.3c3,0,5.9-0.7,8.6-2.3l156.7-90.4c5.3-3.1,8.6-8.8,8.6-15v-181
	c0-6.2-3.3-11.9-8.6-15L264.1,60.9c-5.3-3.1-11.9-3.1-17.2,0L90.2,151.3c-5.3,3.1-8.6,8.8-8.6,15v180.9c0,6.2,3.3,11.9,8.6,15
	l64,36.9c5.2,3,11.9,0.5,13.8-5.2l5-15c1.5-4.3-0.4-9-4.3-11.3l-52.6-30.4v-161l102.4-59.1l-38.5,121.3h68l-72.5,216.9"/>
</svg>
