<svg width="106" height="83" viewBox="0 0 106 83" fill="none" xmlns="http://www.w3.org/2000/svg">
<path fill-rule="evenodd" clip-rule="evenodd" d="M0 11.3182C0 8.31641 1.19655 5.43759 3.32643 3.31502C5.45631 1.19245 8.34504 0 11.3571 0H94.6429C97.655 0 100.544 1.19245 102.674 3.31502C104.803 5.43759 106 8.31641 106 11.3182V71.6818C106 74.6836 104.803 77.5624 102.674 79.685C100.544 81.8076 97.655 83 94.6429 83H11.3571C8.34504 83 5.45631 81.8076 3.32643 79.685C1.19655 77.5624 0 74.6836 0 71.6818V11.3182ZM7.57143 61.923V71.6818C7.57143 73.7644 9.26743 75.4545 11.3571 75.4545H94.6429C95.6469 75.4545 96.6098 75.0571 97.3198 74.3495C98.0297 73.642 98.4286 72.6824 98.4286 71.6818V61.923L84.8505 48.3965C83.4308 46.9835 81.5064 46.1899 79.5 46.1899C77.4936 46.1899 75.5692 46.9835 74.1495 48.3965L69.7076 52.8182L74.6038 57.6976C74.9758 58.043 75.2741 58.4595 75.481 58.9223C75.6879 59.385 75.7992 59.8846 75.8081 60.3912C75.8171 60.8978 75.7236 61.4009 75.5332 61.8707C75.3428 62.3405 75.0594 62.7672 74.6999 63.1255C74.3404 63.4837 73.9122 63.7661 73.4408 63.9559C72.9694 64.1456 72.4645 64.2388 71.9562 64.2299C71.4479 64.2209 70.9466 64.1101 70.4822 63.9039C70.0179 63.6977 69.5999 63.4004 69.2533 63.0297L43.2076 37.0784C41.788 35.6653 39.8636 34.8717 37.8571 34.8717C35.8507 34.8717 33.9263 35.6653 32.5067 37.0784L7.57143 61.9281V61.923ZM58.6786 22.6364C58.6786 21.1355 59.2768 19.6961 60.3418 18.6348C61.4067 17.5735 62.8511 16.9773 64.3571 16.9773C65.8632 16.9773 67.3076 17.5735 68.3725 18.6348C69.4374 19.6961 70.0357 21.1355 70.0357 22.6364C70.0357 24.1372 69.4374 25.5767 68.3725 26.6379C67.3076 27.6992 65.8632 28.2955 64.3571 28.2955C62.8511 28.2955 61.4067 27.6992 60.3418 26.6379C59.2768 25.5767 58.6786 24.1372 58.6786 22.6364Z" fill="#B01623"/>
</svg>
